<svg width="512" height="512" viewBox="0 0 512 512" fill="none" xmlns="http://www.w3.org/2000/svg">
  <!-- Background circle with subtle gradient -->
  <defs>
    <linearGradient id="bgGradient" x1="0%" y1="0%" x2="100%" y2="100%">
      <stop offset="0%" style="stop-color:#0e7490"/>
      <stop offset="100%" style="stop-color:#06b6d4"/>
    </linearGradient>
    <linearGradient id="bracketGradient" x1="0%" y1="0%" x2="100%" y2="100%">
      <stop offset="0%" style="stop-color:#ffffff"/>
      <stop offset="100%" style="stop-color:#e0f2fe"/>
    </linearGradient>
  </defs>

  <!-- Main circle background -->
  <circle cx="256" cy="256" r="240" fill="url(#bgGradient)"/>

  <!-- Left bracket { -->
  <path
    d="M200 160
       Q170 160 170 190
       L170 230
       Q170 256 140 256
       Q170 256 170 282
       L170 322
       Q170 352 200 352"
    stroke="url(#bracketGradient)"
    stroke-width="28"
    stroke-linecap="round"
    stroke-linejoin="round"
    fill="none"/>

  <!-- Right bracket } -->
  <path
    d="M312 160
       Q342 160 342 190
       L342 230
       Q342 256 372 256
       Q342 256 342 282
       L342 322
       Q342 352 312 352"
    stroke="url(#bracketGradient)"
    stroke-width="28"
    stroke-linecap="round"
    stroke-linejoin="round"
    fill="none"/>

  <!-- Center dots representing code -->
  <circle cx="232" cy="256" r="14" fill="#ffffff"/>
  <circle cx="280" cy="256" r="14" fill="#ffffff"/>
</svg>
